<mxfile host="app.diagrams.net" agent="Mozilla/5.0 (Macintosh; Intel Mac OS X 10_15_7) AppleWebKit/537.36 (KHTML, like Gecko) Chrome/129.0.0.0 Safari/537.36" version="24.7.17" pages="2">
  <diagram name="Load RAG Data" id="BsMbt4ji14B_YyCdlJfl">
    <mxGraphModel dx="954" dy="615" grid="1" gridSize="10" guides="1" tooltips="1" connect="1" arrows="1" fold="1" page="1" pageScale="1" pageWidth="2336" pageHeight="1654" math="0" shadow="0">
      <root>
        <mxCell id="b9Ku8RGkFvuVvjZ_D7EI-0" />
        <mxCell id="b9Ku8RGkFvuVvjZ_D7EI-1" parent="b9Ku8RGkFvuVvjZ_D7EI-0" />
        <mxCell id="F3fMT-CKTL7qS3s8__zB-1" value="" style="rounded=0;whiteSpace=wrap;html=1;dashed=1;dashPattern=8 8;fillColor=none;" vertex="1" parent="b9Ku8RGkFvuVvjZ_D7EI-1">
          <mxGeometry x="120" y="217" width="850" height="310" as="geometry" />
        </mxCell>
        <mxCell id="b9Ku8RGkFvuVvjZ_D7EI-8" value="" style="group" vertex="1" connectable="0" parent="b9Ku8RGkFvuVvjZ_D7EI-1">
          <mxGeometry x="150" y="380" width="150" height="100" as="geometry" />
        </mxCell>
        <mxCell id="b9Ku8RGkFvuVvjZ_D7EI-9" value="" style="image;aspect=fixed;html=1;points=[];align=center;fontSize=12;image=img/lib/azure2/general/Files.svg;" vertex="1" parent="b9Ku8RGkFvuVvjZ_D7EI-8">
          <mxGeometry x="43" width="64" height="70" as="geometry" />
        </mxCell>
        <mxCell id="b9Ku8RGkFvuVvjZ_D7EI-10" value="Data Files (.pdf/.txt)" style="text;html=1;align=center;verticalAlign=middle;resizable=0;points=[];autosize=1;strokeColor=none;fillColor=none;fontSize=14;" vertex="1" parent="b9Ku8RGkFvuVvjZ_D7EI-8">
          <mxGeometry y="70" width="150" height="30" as="geometry" />
        </mxCell>
        <mxCell id="b9Ku8RGkFvuVvjZ_D7EI-11" style="edgeStyle=orthogonalEdgeStyle;rounded=0;orthogonalLoop=1;jettySize=auto;html=1;exitX=1;exitY=0.5;exitDx=0;exitDy=0;entryX=0;entryY=0.5;entryDx=0;entryDy=0;" edge="1" parent="b9Ku8RGkFvuVvjZ_D7EI-1" source="b9Ku8RGkFvuVvjZ_D7EI-12" target="b9Ku8RGkFvuVvjZ_D7EI-22">
          <mxGeometry relative="1" as="geometry">
            <mxPoint x="740" y="411.7777777777777" as="targetPoint" />
          </mxGeometry>
        </mxCell>
        <mxCell id="b9Ku8RGkFvuVvjZ_D7EI-12" value="Parse and create&amp;nbsp;&lt;div style=&quot;font-size: 14px;&quot;&gt;text chunks&lt;/div&gt;" style="shape=parallelogram;perimeter=parallelogramPerimeter;whiteSpace=wrap;html=1;fixedSize=1;fontSize=14;" vertex="1" parent="b9Ku8RGkFvuVvjZ_D7EI-1">
          <mxGeometry x="350" y="385" width="160" height="60" as="geometry" />
        </mxCell>
        <mxCell id="b9Ku8RGkFvuVvjZ_D7EI-13" style="edgeStyle=orthogonalEdgeStyle;rounded=0;orthogonalLoop=1;jettySize=auto;html=1;" edge="1" parent="b9Ku8RGkFvuVvjZ_D7EI-1" source="b9Ku8RGkFvuVvjZ_D7EI-9" target="b9Ku8RGkFvuVvjZ_D7EI-12">
          <mxGeometry relative="1" as="geometry" />
        </mxCell>
        <mxCell id="b9Ku8RGkFvuVvjZ_D7EI-14" value="" style="group" vertex="1" connectable="0" parent="b9Ku8RGkFvuVvjZ_D7EI-1">
          <mxGeometry x="840" y="382" width="80" height="90" as="geometry" />
        </mxCell>
        <mxCell id="b9Ku8RGkFvuVvjZ_D7EI-15" value="" style="strokeWidth=2;html=1;shape=mxgraph.flowchart.database;whiteSpace=wrap;fillColor=#d5e8d4;strokeColor=#82b366;" vertex="1" parent="b9Ku8RGkFvuVvjZ_D7EI-14">
          <mxGeometry x="10" width="60" height="60" as="geometry" />
        </mxCell>
        <mxCell id="b9Ku8RGkFvuVvjZ_D7EI-16" value="&lt;font style=&quot;font-size: 14px;&quot;&gt;Astra DB&lt;/font&gt;" style="text;html=1;align=center;verticalAlign=middle;resizable=0;points=[];autosize=1;strokeColor=none;fillColor=none;" vertex="1" parent="b9Ku8RGkFvuVvjZ_D7EI-14">
          <mxGeometry y="60" width="80" height="30" as="geometry" />
        </mxCell>
        <mxCell id="F3fMT-CKTL7qS3s8__zB-0" style="edgeStyle=orthogonalEdgeStyle;rounded=0;orthogonalLoop=1;jettySize=auto;html=1;exitX=0.5;exitY=1;exitDx=0;exitDy=0;" edge="1" parent="b9Ku8RGkFvuVvjZ_D7EI-1" source="b9Ku8RGkFvuVvjZ_D7EI-19" target="b9Ku8RGkFvuVvjZ_D7EI-22">
          <mxGeometry relative="1" as="geometry" />
        </mxCell>
        <mxCell id="b9Ku8RGkFvuVvjZ_D7EI-19" value="OpenAI Embeddings" style="rounded=0;whiteSpace=wrap;html=1;fontSize=14;fillColor=#fff2cc;strokeColor=#d6b656;" vertex="1" parent="b9Ku8RGkFvuVvjZ_D7EI-1">
          <mxGeometry x="575" y="257" width="120" height="60" as="geometry" />
        </mxCell>
        <mxCell id="b9Ku8RGkFvuVvjZ_D7EI-20" style="rounded=0;orthogonalLoop=1;jettySize=auto;html=1;exitX=1;exitY=0.5;exitDx=0;exitDy=0;" edge="1" parent="b9Ku8RGkFvuVvjZ_D7EI-1" source="b9Ku8RGkFvuVvjZ_D7EI-22" target="b9Ku8RGkFvuVvjZ_D7EI-15">
          <mxGeometry relative="1" as="geometry" />
        </mxCell>
        <mxCell id="b9Ku8RGkFvuVvjZ_D7EI-21" value="&lt;font style=&quot;font-size: 14px;&quot;&gt;Save vector data&lt;/font&gt;" style="edgeLabel;html=1;align=center;verticalAlign=middle;resizable=0;points=[];" vertex="1" connectable="0" parent="b9Ku8RGkFvuVvjZ_D7EI-20">
          <mxGeometry x="-0.1333" relative="1" as="geometry">
            <mxPoint as="offset" />
          </mxGeometry>
        </mxCell>
        <mxCell id="b9Ku8RGkFvuVvjZ_D7EI-22" value="Process Data Chunks" style="ellipse;whiteSpace=wrap;html=1;aspect=fixed;fontSize=14;" vertex="1" parent="b9Ku8RGkFvuVvjZ_D7EI-1">
          <mxGeometry x="578.75" y="359.5" width="112.5" height="112.5" as="geometry" />
        </mxCell>
        <mxCell id="F3fMT-CKTL7qS3s8__zB-2" value="&lt;font color=&quot;#8c8c8c&quot;&gt;Langflow&lt;/font&gt;" style="text;html=1;align=center;verticalAlign=middle;resizable=0;points=[];autosize=1;rounded=1;fillColor=default;strokeColor=#E3E0E0;fontSize=14;" vertex="1" parent="b9Ku8RGkFvuVvjZ_D7EI-1">
          <mxGeometry x="145" y="200" width="80" height="30" as="geometry" />
        </mxCell>
      </root>
    </mxGraphModel>
  </diagram>
  <diagram name="OpenAI RAG based chatbot" id="Zu7J9YR8eoMOMOlR4Qcc">
    <mxGraphModel dx="954" dy="615" grid="1" gridSize="10" guides="1" tooltips="1" connect="1" arrows="1" fold="1" page="1" pageScale="1" pageWidth="2336" pageHeight="1654" math="0" shadow="0">
      <root>
        <mxCell id="1HLmYxgNSVdrPW6AYj-o-0" />
        <mxCell id="1HLmYxgNSVdrPW6AYj-o-1" parent="1HLmYxgNSVdrPW6AYj-o-0" />
        <mxCell id="xd7G41vaDAuOxPMvOogO-1" value="" style="rounded=0;whiteSpace=wrap;html=1;fillColor=none;strokeColor=default;dashed=1;dashPattern=8 8;" parent="1HLmYxgNSVdrPW6AYj-o-1" vertex="1">
          <mxGeometry x="1270" y="110" width="340" height="480" as="geometry" />
        </mxCell>
        <mxCell id="Pa0brJ_pC3SU7Nov7lrJ-47" style="rounded=0;orthogonalLoop=1;jettySize=auto;html=1;exitX=0.5;exitY=1;exitDx=0;exitDy=0;entryX=0.5;entryY=0;entryDx=0;entryDy=0;" parent="1HLmYxgNSVdrPW6AYj-o-1" edge="1">
          <mxGeometry relative="1" as="geometry">
            <mxPoint x="1549.9999999999995" y="351.9999999999999" as="sourcePoint" />
          </mxGeometry>
        </mxCell>
        <mxCell id="1HLmYxgNSVdrPW6AYj-o-28" style="rounded=0;orthogonalLoop=1;jettySize=auto;html=1;exitX=0.5;exitY=1;exitDx=0;exitDy=0;entryX=0.5;entryY=0;entryDx=0;entryDy=0;" parent="1HLmYxgNSVdrPW6AYj-o-1" source="1HLmYxgNSVdrPW6AYj-o-30" target="Pa0brJ_pC3SU7Nov7lrJ-50" edge="1">
          <mxGeometry relative="1" as="geometry">
            <mxPoint x="1549.9999999999995" y="346" as="targetPoint" />
          </mxGeometry>
        </mxCell>
        <mxCell id="1HLmYxgNSVdrPW6AYj-o-29" value="&lt;font color=&quot;#737373&quot;&gt;Context Data&lt;/font&gt;" style="edgeLabel;html=1;align=center;verticalAlign=middle;resizable=0;points=[];fontSize=12;" parent="1HLmYxgNSVdrPW6AYj-o-28" vertex="1" connectable="0">
          <mxGeometry y="3" relative="1" as="geometry">
            <mxPoint x="-5" y="-7" as="offset" />
          </mxGeometry>
        </mxCell>
        <mxCell id="1HLmYxgNSVdrPW6AYj-o-30" value="&lt;font style=&quot;font-size: 12px;&quot;&gt;Search in Astra DB&lt;/font&gt;" style="ellipse;whiteSpace=wrap;html=1;fontSize=14;rounded=0;fillColor=#ffe6cc;strokeColor=#d79b00;" parent="1HLmYxgNSVdrPW6AYj-o-1" vertex="1">
          <mxGeometry x="1460" y="207" width="80" height="80" as="geometry" />
        </mxCell>
        <mxCell id="Pa0brJ_pC3SU7Nov7lrJ-0" value="" style="group" parent="1HLmYxgNSVdrPW6AYj-o-1" vertex="1" connectable="0">
          <mxGeometry x="1721" y="196" width="80" height="130" as="geometry" />
        </mxCell>
        <mxCell id="Pa0brJ_pC3SU7Nov7lrJ-1" value="" style="strokeWidth=2;html=1;shape=mxgraph.flowchart.database;whiteSpace=wrap;fillColor=#ffe6cc;strokeColor=#d79b00;" parent="Pa0brJ_pC3SU7Nov7lrJ-0" vertex="1">
          <mxGeometry x="-46" y="8" width="60" height="86.66666666666667" as="geometry" />
        </mxCell>
        <mxCell id="Pa0brJ_pC3SU7Nov7lrJ-2" value="&lt;font style=&quot;font-size: 14px;&quot;&gt;Astra DB&lt;/font&gt;" style="text;html=1;align=center;verticalAlign=middle;resizable=0;points=[];autosize=1;strokeColor=none;fillColor=none;" parent="Pa0brJ_pC3SU7Nov7lrJ-0" vertex="1">
          <mxGeometry x="-56" y="93.66666666666667" width="80" height="30" as="geometry" />
        </mxCell>
        <mxCell id="Pa0brJ_pC3SU7Nov7lrJ-43" style="edgeStyle=orthogonalEdgeStyle;rounded=0;orthogonalLoop=1;jettySize=auto;html=1;entryX=0.5;entryY=0;entryDx=0;entryDy=0;" parent="1HLmYxgNSVdrPW6AYj-o-1" source="Pa0brJ_pC3SU7Nov7lrJ-3" target="1HLmYxgNSVdrPW6AYj-o-30" edge="1">
          <mxGeometry relative="1" as="geometry" />
        </mxCell>
        <mxCell id="Pa0brJ_pC3SU7Nov7lrJ-3" value="OpenAI Embeddings" style="rounded=1;whiteSpace=wrap;html=1;fontSize=12;fillColor=#d5e8d4;strokeColor=#82b366;" parent="1HLmYxgNSVdrPW6AYj-o-1" vertex="1">
          <mxGeometry x="1430" y="134" width="140" height="40" as="geometry" />
        </mxCell>
        <mxCell id="Pa0brJ_pC3SU7Nov7lrJ-13" value="" style="group" parent="1HLmYxgNSVdrPW6AYj-o-1" vertex="1" connectable="0">
          <mxGeometry x="543" y="212" width="150" height="150" as="geometry" />
        </mxCell>
        <mxCell id="Pa0brJ_pC3SU7Nov7lrJ-8" value="&lt;font style=&quot;font-size: 14px;&quot;&gt;Browser&lt;/font&gt;" style="text;html=1;align=center;verticalAlign=middle;resizable=0;points=[];autosize=1;strokeColor=none;fillColor=none;" parent="Pa0brJ_pC3SU7Nov7lrJ-13" vertex="1">
          <mxGeometry x="25" y="103" width="70" height="30" as="geometry" />
        </mxCell>
        <mxCell id="Pa0brJ_pC3SU7Nov7lrJ-12" value="" style="shape=image;verticalLabelPosition=bottom;labelBackgroundColor=default;verticalAlign=top;aspect=fixed;imageAspect=0;image=https://cdn-icons-png.freepik.com/512/8576/8576378.png;" parent="Pa0brJ_pC3SU7Nov7lrJ-13" vertex="1">
          <mxGeometry width="120" height="120" as="geometry" />
        </mxCell>
        <mxCell id="Pa0brJ_pC3SU7Nov7lrJ-18" value="&lt;div&gt;&lt;span style=&quot;background-color: initial;&quot;&gt;https://knowyourbill.pages.dev&lt;/span&gt;&lt;br&gt;&lt;/div&gt;" style="text;html=1;align=center;verticalAlign=middle;resizable=0;points=[];autosize=1;strokeColor=none;fillColor=none;" parent="Pa0brJ_pC3SU7Nov7lrJ-13" vertex="1">
          <mxGeometry x="-30" y="123" width="180" height="30" as="geometry" />
        </mxCell>
        <mxCell id="Pa0brJ_pC3SU7Nov7lrJ-16" value="" style="group" parent="1HLmYxgNSVdrPW6AYj-o-1" vertex="1" connectable="0">
          <mxGeometry x="402" y="230" width="78" height="108" as="geometry" />
        </mxCell>
        <mxCell id="Pa0brJ_pC3SU7Nov7lrJ-14" value="" style="sketch=0;outlineConnect=0;fontColor=#232F3E;gradientColor=none;fillColor=#232F3D;strokeColor=none;dashed=0;verticalLabelPosition=bottom;verticalAlign=top;align=center;html=1;fontSize=12;fontStyle=0;aspect=fixed;pointerEvents=1;shape=mxgraph.aws4.user;" parent="Pa0brJ_pC3SU7Nov7lrJ-16" vertex="1">
          <mxGeometry width="78" height="78" as="geometry" />
        </mxCell>
        <mxCell id="Pa0brJ_pC3SU7Nov7lrJ-15" value="User" style="text;html=1;align=center;verticalAlign=middle;resizable=0;points=[];autosize=1;strokeColor=none;fillColor=none;fontSize=14;" parent="Pa0brJ_pC3SU7Nov7lrJ-16" vertex="1">
          <mxGeometry x="10" y="78" width="50" height="30" as="geometry" />
        </mxCell>
        <mxCell id="Pa0brJ_pC3SU7Nov7lrJ-17" style="rounded=0;orthogonalLoop=1;jettySize=auto;html=1;" parent="1HLmYxgNSVdrPW6AYj-o-1" source="Pa0brJ_pC3SU7Nov7lrJ-14" target="Pa0brJ_pC3SU7Nov7lrJ-12" edge="1">
          <mxGeometry relative="1" as="geometry">
            <mxPoint x="523" y="279" as="targetPoint" />
          </mxGeometry>
        </mxCell>
        <mxCell id="Pa0brJ_pC3SU7Nov7lrJ-28" style="edgeStyle=orthogonalEdgeStyle;rounded=0;orthogonalLoop=1;jettySize=auto;html=1;exitX=0.5;exitY=0;exitDx=0;exitDy=0;entryX=0.5;entryY=0;entryDx=0;entryDy=0;" parent="1HLmYxgNSVdrPW6AYj-o-1" source="Pa0brJ_pC3SU7Nov7lrJ-12" target="Pa0brJ_pC3SU7Nov7lrJ-22" edge="1">
          <mxGeometry relative="1" as="geometry">
            <mxPoint x="760" y="150" as="sourcePoint" />
            <Array as="points">
              <mxPoint x="600" y="212" />
              <mxPoint x="600" y="150" />
              <mxPoint x="940" y="150" />
            </Array>
          </mxGeometry>
        </mxCell>
        <mxCell id="Pa0brJ_pC3SU7Nov7lrJ-27" value="" style="group" parent="1HLmYxgNSVdrPW6AYj-o-1" vertex="1" connectable="0">
          <mxGeometry x="870" y="236" width="140" height="92" as="geometry" />
        </mxCell>
        <mxCell id="Pa0brJ_pC3SU7Nov7lrJ-22" value="Cloudflare Pages" style="rounded=1;whiteSpace=wrap;html=1;fillColor=#fff2cc;strokeColor=#d6b656;" parent="Pa0brJ_pC3SU7Nov7lrJ-27" vertex="1">
          <mxGeometry width="140" height="60" as="geometry" />
        </mxCell>
        <mxCell id="Pa0brJ_pC3SU7Nov7lrJ-26" value="&lt;font style=&quot;font-size: 12px;&quot;&gt;Frontend Server&lt;/font&gt;" style="text;html=1;align=center;verticalAlign=middle;resizable=0;points=[];autosize=1;strokeColor=none;fillColor=none;" parent="Pa0brJ_pC3SU7Nov7lrJ-27" vertex="1">
          <mxGeometry x="15" y="62" width="110" height="30" as="geometry" />
        </mxCell>
        <mxCell id="Pa0brJ_pC3SU7Nov7lrJ-21" value="" style="rounded=0;whiteSpace=wrap;html=1;dashed=1;fillColor=none;dashPattern=8 8;" parent="1HLmYxgNSVdrPW6AYj-o-1" vertex="1">
          <mxGeometry x="827" y="180" width="243" height="410" as="geometry" />
        </mxCell>
        <mxCell id="Pa0brJ_pC3SU7Nov7lrJ-33" style="rounded=0;orthogonalLoop=1;jettySize=auto;html=1;entryX=0.75;entryY=0;entryDx=0;entryDy=0;exitX=0.813;exitY=1.012;exitDx=0;exitDy=0;exitPerimeter=0;" parent="1HLmYxgNSVdrPW6AYj-o-1" source="Pa0brJ_pC3SU7Nov7lrJ-26" target="Pa0brJ_pC3SU7Nov7lrJ-31" edge="1">
          <mxGeometry relative="1" as="geometry">
            <mxPoint x="980" y="310" as="sourcePoint" />
          </mxGeometry>
        </mxCell>
        <mxCell id="Pa0brJ_pC3SU7Nov7lrJ-35" value="&lt;span style=&quot;font-size: 12px; background-color: rgb(251, 251, 251);&quot;&gt;&lt;font color=&quot;#737373&quot;&gt;API call&amp;nbsp;&lt;/font&gt;&lt;/span&gt;" style="edgeLabel;html=1;align=center;verticalAlign=middle;resizable=0;points=[];" parent="Pa0brJ_pC3SU7Nov7lrJ-33" vertex="1" connectable="0">
          <mxGeometry x="0.0519" y="-2" relative="1" as="geometry">
            <mxPoint x="1" y="-2" as="offset" />
          </mxGeometry>
        </mxCell>
        <mxCell id="Pa0brJ_pC3SU7Nov7lrJ-39" value="" style="group" parent="1HLmYxgNSVdrPW6AYj-o-1" vertex="1" connectable="0">
          <mxGeometry x="869" y="417" width="140" height="92" as="geometry" />
        </mxCell>
        <mxCell id="Pa0brJ_pC3SU7Nov7lrJ-31" value="Cloudflare Functions" style="rounded=1;whiteSpace=wrap;html=1;fillColor=#fff2cc;strokeColor=#d6b656;" parent="Pa0brJ_pC3SU7Nov7lrJ-39" vertex="1">
          <mxGeometry width="140" height="60" as="geometry" />
        </mxCell>
        <mxCell id="Pa0brJ_pC3SU7Nov7lrJ-32" value="&lt;font style=&quot;font-size: 12px;&quot;&gt;Proxy Backend&lt;/font&gt;" style="text;html=1;align=center;verticalAlign=middle;resizable=0;points=[];autosize=1;strokeColor=none;fillColor=none;" parent="Pa0brJ_pC3SU7Nov7lrJ-39" vertex="1">
          <mxGeometry x="20" y="62" width="100" height="30" as="geometry" />
        </mxCell>
        <mxCell id="Pa0brJ_pC3SU7Nov7lrJ-44" style="edgeStyle=orthogonalEdgeStyle;rounded=0;orthogonalLoop=1;jettySize=auto;html=1;exitX=1;exitY=0.5;exitDx=0;exitDy=0;" parent="1HLmYxgNSVdrPW6AYj-o-1" source="Pa0brJ_pC3SU7Nov7lrJ-41" target="1HLmYxgNSVdrPW6AYj-o-30" edge="1">
          <mxGeometry relative="1" as="geometry" />
        </mxCell>
        <mxCell id="Pa0brJ_pC3SU7Nov7lrJ-46" style="edgeStyle=orthogonalEdgeStyle;rounded=0;orthogonalLoop=1;jettySize=auto;html=1;exitX=0.5;exitY=1;exitDx=0;exitDy=0;entryX=0;entryY=0.5;entryDx=0;entryDy=0;" parent="1HLmYxgNSVdrPW6AYj-o-1" source="Pa0brJ_pC3SU7Nov7lrJ-41" target="Pa0brJ_pC3SU7Nov7lrJ-50" edge="1">
          <mxGeometry relative="1" as="geometry">
            <mxPoint x="1478" y="367.5" as="targetPoint" />
          </mxGeometry>
        </mxCell>
        <mxCell id="Pa0brJ_pC3SU7Nov7lrJ-41" value="User Input" style="rounded=1;whiteSpace=wrap;html=1;fillColor=#ffe6cc;strokeColor=#d79b00;" parent="1HLmYxgNSVdrPW6AYj-o-1" vertex="1">
          <mxGeometry x="1309" y="227" width="100" height="40" as="geometry" />
        </mxCell>
        <mxCell id="Pa0brJ_pC3SU7Nov7lrJ-42" style="edgeStyle=entityRelationEdgeStyle;rounded=0;orthogonalLoop=1;jettySize=auto;html=1;exitX=1;exitY=0.5;exitDx=0;exitDy=0;entryX=0;entryY=0.5;entryDx=0;entryDy=0;elbow=vertical;" parent="1HLmYxgNSVdrPW6AYj-o-1" source="Pa0brJ_pC3SU7Nov7lrJ-31" target="Pa0brJ_pC3SU7Nov7lrJ-41" edge="1">
          <mxGeometry relative="1" as="geometry" />
        </mxCell>
        <mxCell id="Pa0brJ_pC3SU7Nov7lrJ-54" value="&lt;font color=&quot;#737373&quot;&gt;Langflow API call&lt;br&gt;with user input&lt;/font&gt;" style="edgeLabel;html=1;align=center;verticalAlign=middle;resizable=0;points=[];fontSize=12;" parent="Pa0brJ_pC3SU7Nov7lrJ-42" vertex="1" connectable="0">
          <mxGeometry x="-0.123" y="2" relative="1" as="geometry">
            <mxPoint x="32" y="-16" as="offset" />
          </mxGeometry>
        </mxCell>
        <mxCell id="Pa0brJ_pC3SU7Nov7lrJ-52" style="edgeStyle=orthogonalEdgeStyle;rounded=0;orthogonalLoop=1;jettySize=auto;html=1;exitX=0.5;exitY=1;exitDx=0;exitDy=0;entryX=0.5;entryY=0;entryDx=0;entryDy=0;" parent="1HLmYxgNSVdrPW6AYj-o-1" source="Pa0brJ_pC3SU7Nov7lrJ-48" target="Pa0brJ_pC3SU7Nov7lrJ-49" edge="1">
          <mxGeometry relative="1" as="geometry" />
        </mxCell>
        <mxCell id="Pa0brJ_pC3SU7Nov7lrJ-48" value="OpenAI LLM Model" style="rounded=1;whiteSpace=wrap;html=1;fontSize=12;fillColor=#d5e8d4;strokeColor=#82b366;" parent="1HLmYxgNSVdrPW6AYj-o-1" vertex="1">
          <mxGeometry x="1428" y="428" width="144" height="43" as="geometry" />
        </mxCell>
        <mxCell id="Pa0brJ_pC3SU7Nov7lrJ-49" value="&lt;font style=&quot;font-size: 12px;&quot;&gt;Chat Output&lt;/font&gt;" style="rounded=1;whiteSpace=wrap;html=1;fillColor=#d5e8d4;strokeColor=#82b366;" parent="1HLmYxgNSVdrPW6AYj-o-1" vertex="1">
          <mxGeometry x="1428" y="507" width="145" height="40" as="geometry" />
        </mxCell>
        <mxCell id="Pa0brJ_pC3SU7Nov7lrJ-51" style="edgeStyle=orthogonalEdgeStyle;rounded=0;orthogonalLoop=1;jettySize=auto;html=1;exitX=0.5;exitY=1;exitDx=0;exitDy=0;entryX=0.5;entryY=0;entryDx=0;entryDy=0;" parent="1HLmYxgNSVdrPW6AYj-o-1" source="Pa0brJ_pC3SU7Nov7lrJ-50" target="Pa0brJ_pC3SU7Nov7lrJ-48" edge="1">
          <mxGeometry relative="1" as="geometry" />
        </mxCell>
        <mxCell id="Pa0brJ_pC3SU7Nov7lrJ-55" value="&lt;font color=&quot;#737373&quot;&gt;Query OpenAI with prompt&lt;/font&gt;" style="edgeLabel;html=1;align=center;verticalAlign=middle;resizable=0;points=[];" parent="Pa0brJ_pC3SU7Nov7lrJ-51" vertex="1" connectable="0">
          <mxGeometry x="-0.3117" relative="1" as="geometry">
            <mxPoint y="3" as="offset" />
          </mxGeometry>
        </mxCell>
        <mxCell id="Pa0brJ_pC3SU7Nov7lrJ-50" value="Create Prompt" style="rounded=1;whiteSpace=wrap;html=1;fontSize=12;fillColor=#dae8fc;strokeColor=#6c8ebf;" parent="1HLmYxgNSVdrPW6AYj-o-1" vertex="1">
          <mxGeometry x="1428" y="338" width="144" height="43" as="geometry" />
        </mxCell>
        <mxCell id="Pa0brJ_pC3SU7Nov7lrJ-56" style="rounded=0;orthogonalLoop=1;jettySize=auto;html=1;exitX=0;exitY=0.5;exitDx=0;exitDy=0;exitPerimeter=0;entryX=1;entryY=0.5;entryDx=0;entryDy=0;startArrow=classic;startFill=1;strokeColor=default;" parent="1HLmYxgNSVdrPW6AYj-o-1" source="Pa0brJ_pC3SU7Nov7lrJ-1" target="1HLmYxgNSVdrPW6AYj-o-30" edge="1">
          <mxGeometry relative="1" as="geometry" />
        </mxCell>
        <mxCell id="Pa0brJ_pC3SU7Nov7lrJ-57" style="edgeStyle=orthogonalEdgeStyle;rounded=0;orthogonalLoop=1;jettySize=auto;html=1;exitX=0;exitY=0.5;exitDx=0;exitDy=0;entryX=0.508;entryY=0.967;entryDx=0;entryDy=0;entryPerimeter=0;" parent="1HLmYxgNSVdrPW6AYj-o-1" source="Pa0brJ_pC3SU7Nov7lrJ-49" target="Pa0brJ_pC3SU7Nov7lrJ-32" edge="1">
          <mxGeometry relative="1" as="geometry" />
        </mxCell>
        <mxCell id="Pa0brJ_pC3SU7Nov7lrJ-63" value="&lt;font color=&quot;#737373&quot;&gt;Langflow API Response&lt;/font&gt;" style="edgeLabel;html=1;align=center;verticalAlign=middle;resizable=0;points=[];" parent="Pa0brJ_pC3SU7Nov7lrJ-57" vertex="1" connectable="0">
          <mxGeometry x="0.3126" y="3" relative="1" as="geometry">
            <mxPoint x="71" y="-5" as="offset" />
          </mxGeometry>
        </mxCell>
        <mxCell id="Pa0brJ_pC3SU7Nov7lrJ-59" value="&lt;b style=&quot;forced-color-adjust: none; font-family: Helvetica; font-style: normal; font-variant-ligatures: normal; font-variant-caps: normal; letter-spacing: normal; orphans: 2; text-indent: 0px; text-transform: none; widows: 2; word-spacing: 0px; -webkit-text-stroke-width: 0px; white-space: normal; text-decoration-thickness: initial; text-decoration-style: initial; text-decoration-color: initial; font-size: 14px; background-color: rgb(251, 251, 251);&quot;&gt;&lt;font color=&quot;#737373&quot;&gt;User Input&amp;nbsp;&lt;/font&gt;&lt;/b&gt;&lt;div style=&quot;forced-color-adjust: none; font-family: Helvetica; font-style: normal; font-variant-ligatures: normal; font-variant-caps: normal; font-weight: 400; letter-spacing: normal; orphans: 2; text-indent: 0px; text-transform: none; widows: 2; word-spacing: 0px; -webkit-text-stroke-width: 0px; white-space: normal; text-decoration-thickness: initial; text-decoration-style: initial; text-decoration-color: initial; font-size: 14px; background-color: rgb(251, 251, 251);&quot;&gt;&lt;font color=&quot;#737373&quot;&gt;e.g List all bills in New Jersey&lt;/font&gt;&lt;/div&gt;" style="text;whiteSpace=wrap;html=1;align=center;" parent="1HLmYxgNSVdrPW6AYj-o-1" vertex="1">
          <mxGeometry x="700" y="100" width="210" height="60" as="geometry" />
        </mxCell>
        <mxCell id="Pa0brJ_pC3SU7Nov7lrJ-61" style="rounded=0;orthogonalLoop=1;jettySize=auto;html=1;entryX=0.219;entryY=-0.002;entryDx=0;entryDy=0;exitX=0.135;exitY=1.038;exitDx=0;exitDy=0;exitPerimeter=0;entryPerimeter=0;endArrow=none;endFill=0;startArrow=classic;startFill=1;" parent="1HLmYxgNSVdrPW6AYj-o-1" source="Pa0brJ_pC3SU7Nov7lrJ-26" target="Pa0brJ_pC3SU7Nov7lrJ-31" edge="1">
          <mxGeometry relative="1" as="geometry">
            <mxPoint x="900" y="300" as="sourcePoint" />
            <mxPoint x="900" y="366" as="targetPoint" />
          </mxGeometry>
        </mxCell>
        <mxCell id="Pa0brJ_pC3SU7Nov7lrJ-62" value="&lt;span style=&quot;font-size: 12px; background-color: rgb(251, 251, 251);&quot;&gt;&lt;font color=&quot;#737373&quot;&gt;API &lt;br&gt;Response&lt;/font&gt;&lt;/span&gt;" style="edgeLabel;html=1;align=center;verticalAlign=middle;resizable=0;points=[];" parent="Pa0brJ_pC3SU7Nov7lrJ-61" vertex="1" connectable="0">
          <mxGeometry x="0.0519" y="-2" relative="1" as="geometry">
            <mxPoint x="1" as="offset" />
          </mxGeometry>
        </mxCell>
        <mxCell id="Pa0brJ_pC3SU7Nov7lrJ-64" style="edgeStyle=orthogonalEdgeStyle;rounded=0;orthogonalLoop=1;jettySize=auto;html=1;exitX=0;exitY=0.5;exitDx=0;exitDy=0;entryX=0.975;entryY=0.45;entryDx=0;entryDy=0;entryPerimeter=0;" parent="1HLmYxgNSVdrPW6AYj-o-1" source="Pa0brJ_pC3SU7Nov7lrJ-22" target="Pa0brJ_pC3SU7Nov7lrJ-12" edge="1">
          <mxGeometry relative="1" as="geometry" />
        </mxCell>
        <mxCell id="Pa0brJ_pC3SU7Nov7lrJ-67" value="&lt;span style=&quot;font-size: 12px; background-color: rgb(251, 251, 251);&quot;&gt;&lt;font color=&quot;#737373&quot;&gt;Response to User Input&lt;/font&gt;&lt;/span&gt;" style="edgeLabel;html=1;align=center;verticalAlign=middle;resizable=0;points=[];" parent="Pa0brJ_pC3SU7Nov7lrJ-64" vertex="1" connectable="0">
          <mxGeometry x="0.0963" relative="1" as="geometry">
            <mxPoint x="-4" as="offset" />
          </mxGeometry>
        </mxCell>
        <mxCell id="xd7G41vaDAuOxPMvOogO-0" value="&lt;font color=&quot;#8c8c8c&quot;&gt;Cloudflare&lt;/font&gt;" style="text;html=1;align=center;verticalAlign=middle;resizable=0;points=[];autosize=1;rounded=1;fillColor=default;strokeColor=#E3E0E0;fontSize=14;" parent="1HLmYxgNSVdrPW6AYj-o-1" vertex="1">
          <mxGeometry x="849" y="572" width="90" height="30" as="geometry" />
        </mxCell>
        <mxCell id="xd7G41vaDAuOxPMvOogO-2" value="&lt;font color=&quot;#8c8c8c&quot;&gt;Langflow&lt;/font&gt;" style="text;html=1;align=center;verticalAlign=middle;resizable=0;points=[];autosize=1;rounded=1;fillColor=default;strokeColor=#E3E0E0;fontSize=14;" parent="1HLmYxgNSVdrPW6AYj-o-1" vertex="1">
          <mxGeometry x="1295" y="572" width="80" height="30" as="geometry" />
        </mxCell>
      </root>
    </mxGraphModel>
  </diagram>
</mxfile>
